<svg fill="#000000" xmlns="http://www.w3.org/2000/svg"  viewBox="0 0 100 100" width="400px" height="400px"><path d="M 29 17 C 22.384534 17 17 22.384534 17 29 L 17 71 C 17 77.615466 22.384534 83 29 83 L 71 83 C 77.615466 83 83 77.615466 83 71 L 83 29 C 83 22.384534 77.615466 17 71 17 L 29 17 z M 29 19 L 71 19 C 76.534534 19 81 23.465466 81 29 L 81 71 C 81 76.534534 76.534534 81 71 81 L 29 81 C 23.465466 81 19 76.534534 19 71 L 19 29 C 19 23.465466 23.465466 19 29 19 z M 29 22 C 25.148119 22 22 25.148119 22 29 L 22 71 C 22 74.851881 25.148119 78 29 78 L 71 78 C 74.851881 78 78 74.851881 78 71 L 78 51 A 0.50005 0.50005 0 1 0 77 51 L 77 71 C 77 74.308119 74.308119 77 71 77 L 29 77 C 25.691881 77 23 74.308119 23 71 L 23 29 C 23 25.691881 25.691881 23 29 23 L 66.5 23 A 0.50005 0.50005 0 1 0 66.5 22 L 29 22 z M 66.570312 38 C 65.920313 37.997 65.269484 38.224359 64.771484 38.693359 L 47.474609 56.064453 L 37.181641 45.650391 C 36.164641 44.725391 34.580391 44.799359 33.650391 45.818359 C 33.201391 46.312359 32.972906 46.952141 33.003906 47.619141 C 33.034906 48.286141 33.323781 48.900031 33.800781 49.332031 L 45.816406 61.349609 C 46.277406 61.769609 46.876 62 47.5 62 C 48.141 62 48.749563 61.758594 49.226562 61.308594 L 68.216797 42.318359 C 68.702797 41.859359 68.979047 41.237313 68.998047 40.570312 C 69.017047 39.902313 68.775406 39.268203 68.316406 38.783203 C 67.857406 38.297203 67.238313 38.019 66.570312 38 z M 77.492188 38.992188 A 0.50005 0.50005 0 0 0 77 39.5 L 77 41.5 A 0.50005 0.50005 0 1 0 78 41.5 L 78 39.5 A 0.50005 0.50005 0 0 0 77.492188 38.992188 z M 66.541016 39.001953 C 66.942016 39.013953 67.314844 39.178703 67.589844 39.470703 C 67.864844 39.761703 68.009047 40.142969 67.998047 40.542969 C 67.987047 40.943969 67.821531 41.316563 67.519531 41.601562 L 48.529297 60.591797 C 47.976297 61.111797 47.033813 61.103953 46.507812 60.626953 L 34.490234 48.609375 C 34.194234 48.340375 34.020953 47.972266 34.001953 47.572266 C 33.982953 47.172266 34.121625 46.788187 34.390625 46.492188 C 34.689625 46.164188 35.100766 45.998047 35.509766 45.998047 C 35.863766 45.998047 36.215234 46.122094 36.490234 46.371094 L 47.119141 57.125 C 47.212141 57.219 47.339656 57.273438 47.472656 57.273438 L 47.474609 57.273438 C 47.606609 57.273437 47.734125 57.220953 47.828125 57.126953 L 65.470703 39.410156 C 65.761703 39.134156 66.149016 38.982953 66.541016 39.001953 z M 77.492188 42.992188 A 0.50005 0.50005 0 0 0 77 43.5 L 77 47.5 A 0.50005 0.50005 0 1 0 78 47.5 L 78 43.5 A 0.50005 0.50005 0 0 0 77.492188 42.992188 z"/></svg>